<?xml version="1.0" standalone="no"?>
<!DOCTYPE svg PUBLIC "-//W3C//DTD SVG 20010904//EN"
 "http://www.w3.org/TR/2001/REC-SVG-20010904/DTD/svg10.dtd">
<svg version="1.0" xmlns="http://www.w3.org/2000/svg"
 width="260.000000pt" height="260.000000pt" viewBox="0 0 260.000000 260.000000"
 preserveAspectRatio="xMidYMid meet">
<metadata>
Created by potrace 1.14, written by Peter Selinger 2001-2017
</metadata>
<g transform="translate(0.000000,260.000000) scale(0.100000,-0.100000)"
fill="#000000" stroke="none">
<path d="M1822 2383 c-6 -3 -9 -9 -6 -15 4 -6 -2 -5 -15 1 -18 10 -21 9 -22
-6 0 -16 -1 -16 -8 1 -7 18 -8 18 -14 3 -3 -9 -13 -17 -22 -17 -8 0 -15 -6
-15 -14 0 -8 -8 -17 -17 -20 -15 -6 -15 -8 -3 -16 13 -8 12 -10 -2 -10 -10 0
-18 -5 -18 -11 0 -5 4 -8 8 -5 9 6 9 -81 -1 -90 -4 -4 -2 -13 4 -20 9 -11 7
-15 -6 -20 -13 -5 -14 -9 -3 -15 10 -7 10 -9 -2 -9 -13 0 -13 -1 0 -11 12 -9
11 -10 -7 -6 -13 3 -23 1 -23 -4 0 -5 5 -9 10 -9 6 0 10 -4 10 -8 0 -4 -9 -8
-20 -8 -11 0 -20 5 -20 11 0 5 -5 3 -10 -5 -9 -13 -10 -13 -10 0 0 13 -1 13
-10 0 -9 -13 -10 -13 -10 0 0 13 -1 13 -10 0 -8 -13 -13 -13 -31 -2 -16 10
-19 10 -13 1 5 -9 2 -10 -9 -6 -10 3 -17 2 -17 -3 0 -6 -4 -10 -10 -10 -5 0
-7 7 -3 16 5 13 2 14 -13 6 -10 -6 -27 -13 -36 -16 -10 -3 -18 -10 -18 -16 0
-6 5 -8 12 -4 7 4 8 3 4 -4 -4 -6 -13 -9 -21 -5 -10 3 -15 -1 -15 -12 0 -11
-5 -15 -15 -11 -12 4 -14 1 -7 -12 9 -21 8 -64 -3 -83 -7 -11 -5 -11 11 1 15
11 14 9 -3 -11 -23 -25 -24 -58 -3 -84 8 -10 8 -15 -1 -21 -8 -4 -9 -3 -5 4 4
7 2 12 -3 12 -6 0 -11 -5 -11 -11 0 -5 -4 -7 -10 -4 -6 4 -7 -1 -3 -12 6 -16
5 -17 -12 -3 -11 9 -16 10 -11 3 4 -8 1 -13 -9 -13 -10 0 -13 5 -9 12 4 7 3 8
-5 4 -6 -4 -9 -12 -6 -17 4 -5 1 -9 -4 -9 -6 0 -11 6 -11 13 0 8 -4 7 -10 -3
-9 -13 -14 -7 -11 12 0 4 -6 5 -14 2 -8 -4 -13 -9 -10 -13 2 -4 -3 -8 -11 -8
-8 0 -13 5 -11 12 3 7 -6 10 -23 9 -27 -2 -29 4 -21 48 0 4 9 5 19 2 16 -5 16
-5 0 6 -10 6 -18 22 -18 35 0 13 -6 26 -12 28 -7 3 -4 6 7 6 16 1 17 3 6 10
-8 5 -15 19 -16 30 -1 11 2 18 6 16 8 -6 22 25 14 33 -3 3 -5 -1 -5 -9 0 -8
-8 -2 -18 14 -10 15 -23 24 -27 20 -5 -5 -3 1 5 11 14 18 13 19 -2 13 -10 -3
-20 -2 -23 3 -3 4 0 10 7 12 7 3 5 7 -6 11 -9 4 -15 3 -12 -2 3 -4 -8 -8 -25
-9 -20 0 -27 3 -22 11 5 8 2 8 -9 -1 -16 -13 -68 -13 -68 1 0 4 -8 4 -17 -1
-30 -14 -69 0 -75 28 -2 8 -7 18 -13 22 -6 5 -5 8 4 8 11 0 11 3 0 17 -14 17
-14 20 3 41 8 8 7 12 -3 12 -11 0 -11 2 1 10 12 8 12 10 1 10 -9 0 -10 4 -4
13 9 11 9 26 3 45 -5 11 -8 26 -9 41 -1 10 -4 11 -14 2 -17 -13 -38 5 -30 25
5 13 -23 20 -52 14 -38 -8 -45 -8 -40 1 4 5 -1 9 -9 9 -9 0 -16 -5 -16 -11 0
-8 -5 -8 -15 1 -12 10 -15 10 -15 -1 0 -11 -2 -11 -10 1 -7 11 -10 11 -10 2 0
-10 -5 -10 -20 -2 -15 8 -20 8 -20 -2 0 -9 -3 -9 -10 2 -5 8 -10 10 -10 4 0
-7 -11 -9 -26 -6 -21 4 -25 2 -19 -8 6 -10 4 -12 -10 -6 -16 6 -16 4 -4 -11 9
-11 10 -14 2 -9 -8 4 -13 2 -13 -4 0 -6 -4 -8 -10 -5 -6 3 -10 -5 -11 -19 -1
-14 -1 -36 -2 -49 -1 -12 3 -29 8 -36 5 -9 4 -12 -2 -8 -6 4 -14 0 -17 -9 -5
-12 -2 -15 11 -10 16 6 15 5 -1 -13 -9 -10 -13 -21 -9 -24 7 -5 8 -24 4 -70
-1 -5 -7 -5 -13 -2 -7 4 -6 1 3 -7 16 -13 19 -19 19 -37 0 -5 9 -11 21 -14 12
-3 18 -10 15 -16 -3 -5 -1 -11 6 -14 7 -2 6 -3 -2 -2 -8 0 -14 6 -13 11 1 6
-5 11 -12 11 -11 0 -12 -4 -4 -13 6 -7 8 -18 4 -24 -4 -6 -1 -9 5 -8 7 2 14
-5 15 -15 5 -27 11 -30 32 -19 26 14 63 -12 43 -31 -10 -10 -11 -9 -5 3 5 8 5
12 0 8 -4 -4 -14 -3 -21 3 -8 7 -14 7 -19 -1 -11 -17 1 -23 50 -26 37 -1 43 1
35 11 -8 10 -8 15 1 21 7 4 9 3 6 -3 -15 -25 38 -41 56 -18 4 6 5 -1 3 -15 -3
-14 -5 -29 -5 -34 -1 -6 -7 -2 -14 8 -13 18 -14 18 -21 0 -4 -10 -4 -15 0 -11
4 4 13 2 20 -4 10 -8 16 -5 25 14 12 26 46 33 46 10 0 -8 -4 -9 -11 -4 -7 6
-15 1 -23 -15 -6 -13 -7 -22 -2 -18 5 3 9 0 9 -5 0 -18 -5 -26 -13 -23 -5 1
-6 -2 -2 -8 4 -6 12 -6 24 2 17 10 17 13 4 26 -17 17 -10 27 12 18 9 -3 13
-11 9 -18 -5 -8 -1 -9 12 -5 14 6 13 2 -6 -14 -16 -13 -19 -19 -8 -15 10 3 20
0 24 -6 4 -7 3 -8 -4 -4 -7 4 -12 2 -12 -4 0 -6 -5 -8 -12 -4 -9 5 -9 2 1 -9
7 -9 10 -17 6 -17 -5 0 0 -9 10 -20 10 -11 27 -20 38 -20 20 0 20 0 1 -14 -12
-9 -21 -11 -25 -4 -4 7 -9 6 -13 -1 -4 -6 -2 -12 3 -12 6 -1 16 -3 21 -4 6 -1
15 -3 21 -4 5 0 7 -6 4 -11 -4 -6 -11 -7 -17 -4 -7 5 -8 2 -3 -5 5 -9 10 -10
18 -2 16 16 31 13 18 -3 -9 -11 -8 -15 4 -20 9 -3 14 -2 11 2 -2 4 -1 14 3 21
6 10 10 9 14 -3 4 -9 -3 -25 -16 -37 l-22 -21 22 11 c14 7 24 8 28 1 3 -5 1
-10 -4 -10 -6 0 -11 -5 -11 -12 0 -6 7 -4 18 5 10 10 22 14 25 11 4 -4 -1 -13
-11 -21 -10 -9 -11 -12 -2 -7 8 4 23 14 33 22 9 8 17 12 17 7 0 -4 8 -1 17 6
11 10 14 10 9 2 -4 -7 -2 -13 3 -13 6 0 11 8 12 18 0 12 3 10 10 -7 5 -13 7
-26 4 -29 -3 -3 -5 -1 -5 5 0 11 -41 10 -59 -2 -14 -8 -14 -25 0 -25 5 0 7 5
4 10 -3 6 -1 10 4 10 6 0 11 -6 11 -12 0 -9 3 -9 9 1 5 8 16 11 26 7 16 -6 16
-8 1 -31 -24 -36 -11 -31 15 7 13 17 17 28 9 23 -9 -6 -11 -4 -6 4 9 14 19 7
22 -14 1 -8 -3 -15 -9 -15 -8 0 -7 -4 2 -9 7 -5 10 -14 7 -20 -4 -6 -12 -8
-18 -5 -6 4 -8 -2 -4 -17 3 -13 3 -18 0 -11 -5 10 -9 10 -22 0 -12 -10 -14
-10 -8 0 11 18 -48 19 -71 0 -8 -6 -15 -3 -22 9 -10 17 -10 17 -11 0 0 -10 -4
-16 -10 -12 -5 3 -6 13 -3 23 4 13 2 13 -10 -3 -8 -11 -13 -24 -10 -30 2 -5
-3 -1 -13 10 -14 17 -16 17 -11 3 4 -12 1 -18 -8 -18 -8 0 -15 -5 -15 -11 0
-5 5 -7 12 -3 7 4 8 3 4 -4 -4 -7 -14 -12 -21 -12 -9 0 -12 -6 -8 -17 5 -12 3
-14 -8 -8 -12 8 -12 6 0 -9 13 -15 13 -19 0 -27 -12 -7 -12 -9 1 -9 13 0 13
-1 0 -10 -10 -6 -11 -10 -3 -10 16 0 12 -21 -7 -38 -8 -8 -10 -11 -4 -8 7 3
18 -2 25 -11 10 -11 10 -14 2 -9 -7 4 -21 2 -30 -4 -17 -11 -17 -11 0 -6 9 3
17 2 18 -2 5 -46 5 -50 -8 -45 -10 4 -11 9 -2 19 7 9 8 14 1 14 -13 0 -22 -25
-14 -36 4 -5 5 -8 3 -7 -2 2 -11 -6 -19 -18 -11 -16 -17 -18 -29 -8 -8 7 -23
13 -34 14 -16 1 -17 -1 -6 -14 10 -13 7 -13 -15 2 -15 9 -29 13 -32 8 -4 -5
-15 -7 -26 -4 -13 3 -20 0 -20 -8 0 -9 -3 -10 -8 -4 -4 6 -17 11 -30 11 -12 1
-20 -1 -17 -4 2 -3 -1 -12 -7 -21 -8 -10 -3 -8 12 4 l25 20 -19 -22 c-15 -18
-22 -20 -33 -11 -11 9 -13 8 -11 -3 2 -8 8 -17 13 -21 6 -4 2 -8 -8 -8 -12 0
-16 -4 -10 -12 14 -24 12 -40 -4 -34 -13 5 -14 4 -3 -9 10 -12 10 -18 -1 -32
-8 -9 -9 -14 -3 -10 7 4 11 -4 12 -23 0 -23 -3 -28 -16 -23 -14 4 -14 3 -3 -5
15 -11 24 -75 9 -66 -4 3 -8 0 -8 -5 0 -6 6 -11 13 -11 8 0 7 -4 -3 -10 -8 -5
-10 -10 -4 -10 16 0 11 -59 -6 -70 -12 -8 -12 -10 -1 -10 8 0 11 -7 8 -20 -3
-11 0 -20 6 -21 7 -1 1 -5 -13 -9 -24 -8 -24 -8 -2 -9 12 -1 22 -6 22 -12 0
-5 -5 -7 -12 -3 -7 5 -8 3 -2 -7 12 -20 14 -68 3 -75 -5 -3 -5 -13 -1 -22 12
-24 9 -41 -8 -52 -12 -8 -12 -10 -1 -10 9 0 12 -8 9 -25 -3 -16 -1 -22 6 -18
6 3 8 3 4 -2 -4 -4 -3 -16 3 -26 7 -15 6 -17 -6 -13 -8 3 -13 9 -10 13 2 4 -2
8 -10 8 -13 0 -13 -3 -1 -16 7 -9 11 -22 8 -30 -2 -8 0 -11 6 -7 18 11 7 -23
-13 -37 -14 -11 -15 -16 -5 -22 9 -5 11 -4 6 3 -4 7 -3 12 2 12 5 0 12 -11 14
-25 3 -13 1 -22 -3 -19 -5 3 -9 0 -9 -5 0 -6 4 -11 9 -11 11 0 9 -19 -3 -39
-6 -10 -5 -12 3 -7 8 5 10 0 7 -18 -3 -14 0 -28 5 -32 5 -3 6 -10 3 -16 -4 -6
-2 -8 4 -4 6 3 12 1 15 -6 2 -7 3 -5 2 5 -3 16 14 26 16 10 7 -38 5 -54 -6
-50 -6 3 -12 -1 -12 -9 0 -9 5 -10 15 -5 10 6 21 4 30 -5 14 -15 36 -9 26 7
-3 5 -10 6 -16 3 -7 -5 -8 -2 -3 6 5 8 4 11 -3 6 -6 -3 -13 -2 -17 4 -3 5 1
10 9 10 8 0 17 -4 20 -9 3 -4 16 -7 29 -6 25 3 34 -20 11 -29 -8 -3 -11 0 -7
10 3 7 1 14 -4 14 -13 0 -13 -32 0 -49 6 -7 12 -20 13 -28 2 -8 5 -18 8 -21 4
-3 5 4 3 16 -2 12 -6 25 -10 28 -4 4 -7 10 -7 14 0 9 56 7 66 -2 4 -4 -3 -6
-15 -3 -11 2 -21 -1 -21 -7 0 -5 6 -8 14 -5 7 3 19 0 25 -6 6 -6 11 -8 11 -4
0 4 10 3 23 -3 20 -10 20 -9 -3 10 -22 18 -23 20 -5 18 11 -2 24 -7 28 -13 5
-6 7 -4 4 5 -2 9 -15 15 -30 14 -15 0 -27 3 -27 7 0 11 39 18 46 8 3 -5 10 -9
16 -9 7 0 6 5 -1 14 -8 10 -9 16 -1 21 6 4 10 3 9 -2 -3 -19 2 -23 15 -11 8 7
12 17 9 21 -3 5 4 3 15 -4 16 -10 18 -16 10 -26 -14 -17 -33 -17 -22 0 5 7 1
4 -8 -6 -10 -11 -18 -24 -18 -31 0 -8 2 -8 8 0 4 6 17 14 29 18 27 9 36 31 17
46 -16 15 -19 30 -3 30 5 0 8 -4 5 -9 -8 -13 18 -21 35 -11 7 5 10 12 6 17 -5
4 -13 1 -18 -7 -8 -11 -9 -9 -4 9 5 16 4 21 -4 17 -17 -11 -13 0 6 15 9 8 14
9 10 3 -7 -12 21 -29 31 -19 3 3 -1 5 -9 5 -8 1 -3 7 10 14 20 11 21 14 7 19
-10 4 -15 3 -11 -3 3 -6 2 -10 -4 -10 -13 0 -7 48 7 62 16 16 15 28 0 24 -7
-1 -10 -1 -5 1 4 3 4 10 1 15 -4 7 -2 8 4 4 7 -4 12 -3 12 3 0 5 -8 12 -17 14
-17 4 -17 5 0 6 9 0 17 6 17 12 0 5 5 7 12 3 7 -4 8 -3 4 5 -6 9 -11 9 -21 1
-12 -10 -13 -6 -5 19 5 17 5 33 2 35 -4 2 -6 19 -6 38 1 18 -4 40 -10 48 -9
13 -9 13 5 2 14 -10 18 -10 22 2 4 9 1 18 -5 22 -7 5 -8 2 -3 -6 5 -9 4 -11
-4 -6 -9 6 -9 11 0 22 6 8 8 14 4 14 -4 0 -2 7 5 15 7 8 9 15 5 15 -5 0 0 9 9
19 13 14 14 21 5 27 -8 5 -10 3 -4 -6 6 -9 4 -12 -7 -8 -10 4 -14 0 -13 -15 3
-27 -4 -39 -16 -31 -6 3 -5 11 2 21 10 12 10 16 -2 24 -10 6 -10 9 -1 9 6 0
12 11 12 25 0 14 -5 25 -12 25 -6 0 -3 7 8 15 10 8 15 14 9 13 -5 -2 -10 2
-10 7 0 6 4 9 10 8 6 -2 11 11 11 27 1 17 -3 30 -8 30 -5 0 -6 -6 -2 -12 4 -7
3 -9 -2 -5 -4 4 -7 24 -5 43 2 23 -2 34 -11 34 -8 0 -7 4 5 11 17 10 24 30 10
28 -22 -4 -24 3 -8 21 13 14 21 17 31 9 9 -7 14 -6 20 3 4 7 3 10 -1 5 -5 -4
-17 0 -27 10 -11 9 -18 11 -18 5 0 -7 -5 -12 -12 -12 -6 0 -4 7 5 18 10 10 14
23 10 27 -5 5 0 3 9 -4 9 -7 23 -10 30 -6 7 4 5 0 -6 -9 -18 -14 -18 -15 2
-13 11 0 19 4 16 8 -8 13 17 21 30 10 10 -9 16 -7 21 6 10 23 12 29 14 48 2
22 17 18 18 -5 1 -11 -1 -18 -5 -16 -4 3 -8 -4 -8 -15 0 -18 2 -18 12 -5 6 9
15 12 19 8 5 -4 5 1 2 11 -5 12 -1 17 14 17 17 0 18 -3 9 -22 -11 -22 -11 -23
5 -3 9 11 19 20 23 20 4 0 6 8 5 17 -2 12 2 15 12 12 8 -4 12 -11 8 -18 -3 -6
-2 -7 3 -3 5 5 9 14 9 19 0 6 6 13 14 16 8 3 11 0 7 -6 -7 -12 20 -10 31 3 4
4 3 5 -4 1 -7 -4 -17 2 -22 13 -9 16 -7 21 11 27 18 5 19 8 6 15 -13 7 -17 34
-8 47 2 1 3 11 4 22 0 11 4 20 9 20 30 0 31 -1 17 -10 -8 -5 -10 -10 -4 -10 6
0 13 3 17 6 9 10 -4 34 -18 34 -8 0 -16 4 -19 8 -7 11 25 9 44 -3 13 -7 13 -6
2 8 -12 14 -11 16 7 14 15 -1 20 -6 16 -17 -5 -11 -3 -12 6 -3 13 13 3 37 -12
28 -5 -4 -9 -1 -9 6 0 7 -8 5 -20 -6 -11 -10 -20 -13 -20 -7 0 7 5 12 12 12 6
0 8 3 5 7 -11 10 13 33 35 33 12 0 17 4 12 12 -4 7 -3 8 4 4 19 -11 3 -34 -20
-28 -15 4 -19 2 -14 -7 5 -7 11 -10 14 -7 3 3 13 -1 23 -10 16 -14 18 -14 29
6 11 20 10 21 -12 10 -22 -11 -22 -10 -4 4 23 18 36 20 36 6 0 -5 5 -10 11
-10 6 0 9 6 6 14 -3 8 2 20 11 28 15 12 16 11 3 -4 -12 -16 -9 -22 10 -20 4 1
5 -8 2 -19 -3 -11 -9 -17 -12 -12 -3 4 -14 9 -24 10 -10 0 -16 -2 -13 -5 3 -3
1 -11 -5 -19 -8 -8 -8 -13 -1 -13 6 0 12 6 15 13 8 22 42 -8 40 -34 -2 -21 -2
-22 8 -6 8 13 7 22 -1 33 -10 11 -10 14 -1 14 7 0 9 5 5 12 -4 7 -3 8 4 4 6
-4 8 -14 5 -23 -4 -9 -2 -14 3 -10 5 3 10 -3 10 -13 0 -10 -4 -16 -8 -14 -11
7 -10 -1 4 -31 6 -14 15 -25 20 -25 5 0 7 -4 4 -9 -4 -5 0 -12 6 -14 10 -4 10
-6 1 -6 -7 -1 -19 12 -28 29 -9 16 -17 30 -19 30 -9 0 2 -44 12 -48 7 -2 12
-12 12 -23 0 -10 6 -19 13 -19 8 0 7 -4 -3 -10 -8 -5 -10 -10 -4 -10 18 0 24
13 13 27 -9 10 -8 13 5 13 10 0 15 -4 11 -9 -3 -5 3 -17 12 -27 17 -17 17 -17
1 -11 -24 9 -32 -8 -12 -27 12 -13 19 -14 37 -4 29 16 47 18 47 7 0 -5 -5 -9
-11 -9 -5 0 -7 -5 -4 -10 4 -6 11 -7 17 -4 7 4 8 2 4 -4 -4 -7 -1 -12 9 -12 9
0 13 5 9 11 -4 8 0 8 15 0 11 -7 21 -9 21 -5 0 4 9 -1 20 -11 11 -10 20 -13
20 -8 0 6 7 14 16 17 13 5 14 4 6 -7 -7 -8 -9 -16 -6 -20 8 -8 -18 -3 -33 6
-8 5 -13 3 -13 -5 0 -8 -5 -6 -11 5 -7 12 -15 15 -27 8 -9 -4 -24 -6 -32 -4
-9 3 -8 0 3 -7 14 -9 22 -8 34 2 14 11 16 11 10 -4 -4 -13 -1 -16 18 -12 13 2
26 0 30 -6 4 -6 13 -5 25 2 10 7 17 15 14 19 -2 4 0 10 5 14 6 3 8 -3 6 -15
-2 -11 0 -22 6 -25 5 -4 9 -1 9 5 0 6 5 8 11 4 8 -4 7 -9 -2 -15 -12 -8 -11
-11 1 -19 8 -5 11 -10 5 -10 -13 0 -37 16 -36 24 1 3 -1 6 -4 6 -3 0 -8 0 -12
0 -3 0 4 -11 16 -24 12 -13 21 -27 20 -32 -4 -25 2 -36 19 -29 13 5 14 4 5 -6
-10 -10 -16 -9 -29 2 -16 13 -16 11 0 -13 17 -26 17 -28 1 -34 -15 -6 -14 -9
6 -20 13 -7 18 -13 12 -14 -7 0 -13 -8 -13 -17 0 -16 2 -16 11 -3 9 12 10 12
5 -3 -3 -10 -6 -21 -6 -24 0 -3 -6 0 -13 6 -10 8 -14 7 -14 -4 0 -8 3 -12 7
-10 3 2 12 0 20 -6 13 -7 12 -9 -1 -9 -9 0 -20 -7 -23 -16 -10 -26 -7 -29 10
-8 8 10 12 13 8 5 -5 -11 -3 -13 12 -8 16 6 17 5 4 -5 -22 -19 -48 -53 -32
-44 7 4 12 2 12 -4 0 -7 7 -10 18 -6 14 5 14 4 -2 -9 -18 -14 -15 -20 7 -16 5
1 6 -3 2 -9 -4 -6 -12 -7 -24 -1 -13 7 -18 6 -18 -4 0 -8 3 -14 6 -13 19 2 28
-4 28 -17 0 -11 -4 -12 -11 -5 -5 5 -15 10 -21 10 -5 0 -3 -5 5 -11 11 -8 12
-12 3 -16 -7 -2 -13 -9 -13 -15 0 -6 6 -5 15 2 9 7 18 10 22 6 4 -3 -2 -13
-13 -21 -12 -9 -14 -14 -6 -15 7 0 10 -5 7 -10 -3 -6 -1 -10 4 -10 6 0 11 -5
11 -11 0 -5 -4 -7 -10 -4 -5 3 -10 3 -11 -2 -6 -49 -5 -61 7 -56 14 5 13 -21
-1 -34 -4 -4 -5 -2 0 6 6 10 4 12 -4 6 -9 -5 -10 -10 -2 -18 6 -6 11 -17 11
-25 0 -12 -3 -12 -17 -1 -16 13 -17 12 -4 -3 11 -15 11 -18 0 -18 -8 -1 -3 -7
11 -15 14 -8 19 -14 13 -15 -7 0 -13 -5 -13 -11 0 -5 5 -7 10 -4 6 3 10 3 11
-2 0 -4 2 -19 5 -32 4 -20 2 -22 -10 -12 -11 9 -16 9 -22 0 -4 -7 -3 -9 3 -6
5 3 16 -2 24 -11 42 -51 42 -51 29 -67 -9 -10 -9 -15 -1 -16 10 -1 47 -5 87
-8 11 -1 13 -7 9 -21 -4 -11 -2 -20 4 -20 6 0 10 3 10 8 -3 19 2 33 11 27 6
-3 7 1 3 10 -4 12 -8 13 -13 5 -6 -9 -9 -9 -14 -1 -4 6 -11 9 -16 6 -4 -3 -5
5 -2 17 5 20 7 20 10 5 2 -11 9 -16 18 -13 9 4 19 -4 26 -19 6 -14 15 -25 19
-25 10 0 1 28 -15 50 -9 13 -9 13 6 2 13 -10 17 -10 22 0 3 7 4 4 1 -7 -6 -27
8 -48 37 -52 17 -2 19 -1 8 6 -8 5 -17 8 -21 5 -4 -2 -9 3 -13 11 -3 8 -1 17
4 20 6 4 10 1 10 -6 0 -10 3 -10 12 -1 19 19 32 14 17 -6 -7 -9 -9 -14 -5 -10
5 4 14 0 21 -8 11 -15 12 -15 12 0 0 9 -3 16 -7 16 -3 0 -6 11 -6 25 0 17 3
21 11 15 12 -10 25 -4 25 12 0 5 -6 6 -12 2 -9 -5 -9 -3 1 9 7 9 16 15 20 13
9 -6 31 21 23 28 -3 4 2 4 11 0 16 -6 16 -8 -5 -23 -13 -9 -27 -15 -31 -13 -5
1 -6 -2 -2 -7 7 -12 35 -3 35 11 0 5 4 7 9 4 12 -8 19 14 13 36 -2 10 -9 15
-16 11 -6 -3 -3 2 6 13 14 15 20 16 30 5 11 -10 9 -11 -7 -5 -16 5 -18 4 -8
-6 12 -13 37 -4 28 11 -4 5 0 9 7 9 10 0 10 2 -1 9 -8 5 -21 7 -30 4 -14 -4
-14 -3 -1 6 8 6 11 11 6 11 -4 0 -1 12 9 26 9 15 13 24 7 20 -5 -3 -13 1 -16
10 -4 11 -2 15 8 11 10 -4 13 -1 9 8 -3 8 -9 12 -14 9 -5 -3 -9 0 -9 5 0 6 8
11 18 12 10 0 12 3 5 6 -7 2 -13 9 -13 14 0 6 4 7 10 4 6 -4 7 1 3 11 -6 16
-7 15 -20 -2 -7 -10 -13 -13 -13 -7 0 7 4 14 9 18 6 3 8 14 6 25 -2 13 2 20
11 20 8 0 12 5 9 10 -4 6 -10 8 -14 6 -4 -3 -8 1 -8 9 0 8 4 12 8 10 4 -3 10
2 13 11 8 21 8 24 -5 24 -5 0 -7 -5 -4 -10 3 -6 2 -10 -3 -10 -5 0 -8 15 -8
34 1 19 4 32 9 29 4 -2 4 -9 1 -15 -4 -7 -2 -8 4 -4 7 4 12 2 12 -5 0 -7 3 -9
6 -6 4 4 2 13 -4 20 -7 8 -9 17 -5 20 3 4 0 7 -9 7 -10 0 -15 10 -14 34 1 19
4 32 7 30 4 -2 10 3 13 12 8 21 8 24 -5 24 -5 0 -7 -4 -4 -10 3 -6 2 -10 -3
-10 -5 0 -8 15 -8 34 1 19 4 32 9 29 4 -2 4 -9 1 -15 -4 -7 -2 -8 4 -4 7 4 12
2 12 -5 0 -7 3 -9 6 -6 4 4 2 13 -4 20 -7 8 -9 17 -5 20 3 4 -1 7 -9 7 -11 0
-15 8 -14 24 0 16 5 21 11 16 7 -6 11 -2 11 10 0 10 -4 17 -7 14 -4 -2 -10 0
-14 6 -3 5 1 10 9 10 9 0 16 5 16 10 0 6 -6 10 -14 8 -8 -2 -14 1 -13 7 1 5 6
9 11 7 5 -2 4 4 -4 12 -7 9 -9 16 -5 16 4 0 1 8 -6 17 -8 9 -9 14 -3 10 12 -7
26 38 16 48 -3 3 -7 11 -8 18 -2 7 -5 22 -8 35 -3 13 -1 20 5 17 5 -4 9 -1 9
4 0 6 -4 11 -10 11 -5 0 -10 4 -10 10 0 5 6 8 13 6 6 -1 9 -1 4 1 -4 3 -4 10
0 16 4 7 0 8 -11 4 -10 -4 -15 -3 -11 3 10 16 -29 60 -45 50 -8 -5 -23 -2 -39
8 -14 10 -22 12 -18 6 7 -13 -73 -12 -93 1 -5 3 -10 2 -10 -2 0 -5 -10 -9 -22
-9 -25 0 -51 29 -53 58 -2 17 -1 17 18 1 18 -17 18 -17 1 14 -10 17 -23 29
-28 26 -5 -3 -6 -1 -2 6 4 6 11 9 16 6 5 -3 11 -1 15 5 3 5 -1 10 -9 10 -18 0
-22 26 -5 32 8 3 6 9 -4 20 -14 14 -14 17 -2 22 17 6 20 26 4 26 -5 0 -7 -5
-3 -12 4 -7 3 -8 -5 -4 -9 6 -9 11 1 24 10 12 10 14 1 8 -12 -7 -18 5 -14 28
1 5 -6 6 -15 2 -12 -5 -15 -2 -10 9 3 9 2 14 -3 10 -5 -3 -12 1 -14 7 -4 10
-6 10 -6 1 -1 -7 -6 -13 -12 -13 -6 0 -9 7 -5 15 3 8 1 15 -4 15 -6 0 -10 -5
-10 -12 0 -6 -10 -3 -22 8 -12 10 -19 15 -16 9 3 -5 0 -16 -8 -23 -8 -7 -14
-8 -14 -2 0 5 -5 10 -11 10 -5 0 -7 -5 -4 -11 4 -6 -2 -5 -13 2 -12 7 -19 16
-16 20 2 5 -4 6 -14 4 -10 -2 -25 0 -32 5 -18 11 -3 29 21 25 16 -3 18 -1 10
9 -6 7 -8 16 -5 19 9 8 33 -16 26 -27 -3 -5 0 -6 7 -2 9 6 9 11 0 22 -7 9 -8
14 -1 14 6 0 14 -5 18 -12 5 -7 11 -5 21 7 7 11 13 15 13 11 0 -5 7 -3 15 4
12 10 18 10 33 -1 15 -13 16 -12 3 4 -8 9 -10 21 -6 25 4 4 10 1 12 -5 3 -7 9
-13 15 -13 7 0 6 5 -1 14 -7 9 -8 17 -2 20 5 3 11 0 14 -6 2 -8 8 -9 13 -4 5
5 4 11 -3 13 -7 3 -13 12 -13 20 0 14 3 13 22 -3 13 -12 18 -13 12 -4 -12 20
-14 69 -3 76 5 3 6 10 3 16 -4 6 -3 8 2 5 6 -3 16 -2 24 3 13 8 13 12 1 32
-13 22 -13 22 4 8 17 -14 17 -13 10 9 -4 15 -4 21 3 17 6 -3 9 1 8 10 -1 8 -8
19 -15 23 -10 6 -9 10 4 15 15 5 15 9 4 23 -9 11 -3 9 15 -5 15 -12 32 -19 37
-16 5 3 9 1 9 -5 0 -5 -4 -13 -10 -16 -5 -3 -10 -12 -10 -18 0 -7 8 -1 18 13
10 16 25 25 37 23 l20 -3 -20 9 c-11 5 -28 7 -37 5 -10 -1 -23 6 -29 17 -10
19 -9 20 13 8 35 -20 57 -21 33 -2 -15 12 -16 14 -3 10 9 -3 19 -1 22 6 3 7 4
3 3 -8 -1 -14 4 -20 21 -21 12 -1 22 3 22 8 0 5 4 7 9 4 5 -3 14 1 21 9 8 9
22 13 39 10 24 -5 24 -5 4 4 -16 7 -21 15 -16 27 5 13 3 15 -8 9 -8 -5 -11 -5
-6 1 5 5 14 9 20 9 7 1 11 6 9 13 -1 7 1 11 5 11 20 -3 26 2 13 11 -11 7 -11
10 -2 10 7 0 10 5 6 12 -5 7 -3 8 5 4 8 -6 11 -2 9 10 -2 11 2 18 10 17 6 -2
12 2 12 7 0 6 5 10 11 10 5 0 -1 -15 -14 -32 -30 -41 -27 -100 3 -63 11 13 10
14 -3 9 -10 -3 -15 -1 -13 8 2 18 32 59 38 53 2 -2 4 8 4 24 -1 16 -5 33 -9
37 -4 5 -5 1 -1 -9 3 -10 1 -17 -6 -17 -6 0 -8 5 -5 10 3 6 0 10 -7 10 -8 0
-9 3 -3 8 6 4 12 16 13 27 2 11 8 23 14 26 5 3 2 9 -7 12 -10 5 -14 3 -9 -5 4
-7 3 -8 -4 -4 -6 4 -9 13 -5 22 4 12 8 12 22 2 15 -12 15 -11 0 7 -9 11 -14
26 -11 34 3 10 0 11 -9 5 -12 -7 -12 -5 0 9 10 13 10 17 1 17 -10 0 -9 4 1 16
11 13 10 17 -5 26 -14 8 -15 12 -4 26 11 13 11 15 -4 9 -13 -4 -15 -2 -11 10
4 10 2 14 -4 10 -6 -4 -19 1 -29 10 -17 17 -48 28 -39 14 2 -5 -13 -5 -35 -1
-25 5 -40 4 -40 -3 0 -5 -7 -4 -15 3 -12 10 -15 10 -15 -1 0 -9 -4 -8 -12 3
-7 9 -19 14 -26 11z m-1252 -414 c0 -5 6 -7 13 -3 8 5 7 2 -2 -9 -8 -10 -16
-15 -19 -12 -10 10 -11 35 -1 35 5 0 9 -5 9 -11z m1390 -64 c-7 -8 -15 -13
-18 -11 -2 3 -13 1 -22 -4 -14 -8 -18 -6 -16 6 4 23 28 35 45 21 12 -10 14 -9
7 8 -6 16 -5 17 5 8 10 -10 9 -16 -1 -28z m-560 -25 c0 -5 -4 -10 -10 -10 -5
0 -10 5 -10 10 0 6 5 10 10 10 6 0 10 -4 10 -10z m373 -65 c-3 -9 -8 -14 -10
-11 -3 3 -2 9 2 15 9 16 15 13 8 -4z m-959 -76 c-2 -4 2 -10 8 -12 8 -4 9 -6
2 -6 -6 -1 -17 5 -23 12 -8 10 -7 14 4 14 8 0 12 -4 9 -8z m61 -67 c-3 -3 -11
0 -18 7 -9 10 -8 11 6 5 10 -3 15 -9 12 -12z m850 0 c-3 -3 -11 0 -18 7 -9 10
-8 11 6 5 10 -3 15 -9 12 -12z m-30 -21 c-1 -21 -58 -74 -68 -64 -4 3 -9 -2
-13 -11 -6 -16 -8 -16 -25 0 -12 11 -19 13 -19 5 0 -7 -4 -10 -9 -7 -12 8 -33
-19 -23 -29 4 -5 2 -6 -3 -2 -6 3 -18 -1 -28 -8 -17 -12 -17 -14 4 -29 12 -8
26 -13 31 -10 4 3 8 1 8 -4 0 -6 -7 -13 -16 -16 -10 -4 -13 -2 -8 6 5 7 2 9
-7 6 -8 -3 -23 0 -34 8 -10 8 -13 14 -7 14 14 0 12 21 -3 32 -6 5 -3 8 7 8 11
0 16 6 13 18 -2 10 1 25 7 33 8 11 9 11 5 -3 -4 -10 1 -18 14 -21 10 -3 19 -1
19 4 0 5 7 9 16 9 9 0 12 5 8 12 -4 6 -3 8 4 4 5 -3 12 -3 15 1 2 5 2 2 1 -4
-2 -7 1 -13 6 -13 6 0 10 6 11 13 0 9 2 9 6 0 3 -10 7 -10 18 0 7 7 10 17 7
22 -3 6 1 4 10 -2 15 -13 28 -8 28 9 0 5 -5 6 -12 2 -7 -4 -8 -3 -4 5 4 6 11
9 16 6 4 -3 10 2 14 10 8 21 13 19 11 -4z m-756 -43 c13 -21 13 -22 -2 -9 -10
7 -17 10 -17 7 0 -4 -5 -4 -10 -1 -11 7 -4 25 8 25 4 0 13 -10 21 -22z m45 13
c-8 -8 -34 -10 -38 -2 -3 4 6 7 19 7 14 0 22 -2 19 -5z m86 -25 c-4 -4 -16 -4
-26 2 -16 9 -14 10 8 9 15 -1 23 -6 18 -11z m10 -31 c-8 -9 -8 -15 -2 -15 6 0
10 -9 9 -20 -1 -11 -5 -20 -9 -20 -4 0 -7 -3 -7 -7 3 -17 -2 -24 -11 -18 -7 5
-8 11 -1 19 5 6 8 21 7 31 -4 22 12 60 21 51 3 -3 0 -12 -7 -21z m207 -230 c0
-8 -4 -12 -9 -9 -5 3 -6 10 -3 15 9 13 12 11 12 -6z m-77 -14 c0 -6 -4 -12 -8
-15 -5 -3 -9 1 -9 9 0 8 4 15 9 15 4 0 8 -4 8 -9z m180 -21 c0 -5 -2 -10 -4
-10 -3 0 -8 5 -11 10 -3 6 -1 10 4 10 6 0 11 -4 11 -10z m-205 -9 c3 -5 2 -12
-3 -15 -5 -3 -9 1 -9 9 0 17 3 19 12 6z m846 -138 c13 -16 12 -17 -3 -4 -17
13 -22 21 -14 21 2 0 10 -8 17 -17z m-874 -44 c-9 -6 -15 -14 -12 -18 2 -5 -2
-14 -9 -21 -12 -9 -17 -7 -25 8 -9 16 -7 19 7 18 9 0 16 4 15 9 -1 6 8 12 20
12 20 2 20 1 4 -8z m-65 -37 c-7 -2 -9 -9 -6 -14 4 -7 2 -8 -4 -4 -6 4 -9 13
-6 21 4 8 11 12 17 8 8 -5 7 -8 -1 -11z m367 -8 c-14 -13 -17 -13 -28 0 -10
12 -9 14 8 9 13 -3 21 -1 21 8 0 7 3 9 7 5 4 -3 0 -13 -8 -22z m-552 -29 c0
-8 -4 -12 -9 -9 -4 3 -8 9 -8 15 0 5 4 9 8 9 5 0 9 -7 9 -15z m63 10 c0 -2
-10 -9 -22 -15 -22 -11 -22 -10 -4 4 21 17 26 19 26 11z m640 -5 c0 -5 -4 -10
-10 -10 -5 0 -10 5 -10 10 0 6 5 10 10 10 6 0 10 -4 10 -10z m-510 -10 c0 -5
-2 -10 -4 -10 -3 0 -8 5 -11 10 -3 6 -1 10 4 10 6 0 11 -4 11 -10z m-111 -34
c-8 -8 -13 -7 -16 2 -4 10 -8 10 -19 1 -8 -6 -14 -8 -14 -4 0 4 8 14 17 21 23
16 51 -2 32 -20z m-59 4 c0 -5 -2 -10 -4 -10 -3 0 -8 5 -11 10 -3 6 -1 10 4
10 6 0 11 -4 11 -10z m1135 -8 c-3 -3 -11 0 -18 7 -9 10 -8 11 6 5 10 -3 15
-9 12 -12z m-1170 -220 c-3 -3 -11 0 -18 7 -9 10 -8 11 6 5 10 -3 15 -9 12
-12z m800 -332 c-3 -5 -12 -10 -18 -10 -7 0 -6 4 3 10 19 12 23 12 15 0z m2
-116 c-3 -3 -12 -4 -19 -1 -8 3 -5 6 6 6 11 1 17 -2 13 -5z m-1169 -70 c1 -14
-2 -23 -7 -20 -7 5 -8 23 -2 44 3 9 7 -2 9 -24z m1191 -11 c-3 -23 10 -53 23
-53 5 0 6 5 2 12 -4 6 -3 8 4 5 5 -4 8 -16 5 -27 -3 -12 0 -20 6 -20 7 0 9 4
6 10 -3 6 1 7 10 4 24 -10 12 -28 -19 -30 -20 -1 -25 3 -21 13 3 8 -3 27 -13
41 -16 24 -19 62 -6 62 3 0 4 -8 3 -17z m-1104 -43 c3 -5 1 -10 -4 -10 -6 0
-11 5 -11 10 0 6 2 10 4 10 3 0 8 -4 11 -10z m1175 0 c0 -5 -5 -10 -11 -10 -5
0 -7 5 -4 10 3 6 8 10 11 10 2 0 4 -4 4 -10z m-1100 -42 c0 -4 -7 -8 -15 -8
-8 0 -15 4 -15 8 0 5 7 9 15 9 8 0 15 -4 15 -9z m1247 6 c-3 -3 -12 -4 -19 -1
-8 3 -5 6 6 6 11 1 17 -2 13 -5z"/>
<path d="M1920 1910 c-12 -7 -10 -9 7 -7 12 0 19 5 17 9 -6 10 -6 10 -24 -2z"/>
<path d="M1503 1555 c0 -11 4 -12 14 -4 7 6 13 13 13 15 0 2 -6 4 -13 4 -8 0
-14 -7 -14 -15z"/>
<path d="M835 2340 c3 -5 8 -10 11 -10 2 0 4 5 4 10 0 6 -5 10 -11 10 -5 0 -7
-4 -4 -10z"/>
<path d="M1670 2200 c0 -5 5 -10 11 -10 5 0 7 5 4 10 -3 6 -8 10 -11 10 -2 0
-4 -4 -4 -10z"/>
<path d="M893 2183 c4 -6 3 -13 -2 -15 -5 -1 -3 -11 4 -22 13 -17 14 -17 11 8
-1 14 -6 29 -11 34 -4 4 -5 2 -2 -5z"/>
<path d="M1655 2170 c-7 -11 22 -26 32 -16 4 3 -1 6 -11 6 -9 0 -14 5 -11 10
3 6 4 10 1 10 -3 0 -8 -5 -11 -10z"/>
<path d="M2080 2120 c-8 -5 -10 -10 -5 -10 6 0 17 5 25 10 8 5 11 10 5 10 -5
0 -17 -5 -25 -10z"/>
<path d="M890 2118 c0 -2 9 -11 19 -20 18 -15 20 -15 26 0 3 9 3 13 -1 10 -4
-4 -15 -3 -25 3 -11 5 -19 8 -19 7z"/>
<path d="M2065 2000 c-3 -6 1 -7 9 -4 18 7 21 14 7 14 -6 0 -13 -4 -16 -10z"/>
<path d="M2010 1955 c-11 -13 -10 -14 4 -9 9 3 16 10 16 15 0 13 -6 11 -20 -6z"/>
<path d="M2020 1936 c0 -2 7 -7 16 -10 8 -3 12 -2 9 4 -6 10 -25 14 -25 6z"/>
<path d="M1950 1869 c-17 -13 -18 -17 -5 -10 33 17 51 31 40 31 -5 0 -21 -10
-35 -21z"/>
<path d="M628 1873 c6 -2 18 -2 25 0 6 3 1 5 -13 5 -14 0 -19 -2 -12 -5z"/>
<path d="M595 1860 c3 -5 8 -10 11 -10 2 0 4 5 4 10 0 6 -5 10 -11 10 -5 0 -7
-4 -4 -10z"/>
<path d="M649 1843 c-13 -16 -12 -17 4 -4 9 7 17 15 17 17 0 8 -8 3 -21 -13z"/>
<path d="M1796 1852 c-3 -6 -1 -14 5 -17 15 -10 25 3 12 16 -7 7 -13 7 -17 1z"/>
<path d="M1181 1823 c-1 -17 16 -25 25 -12 4 7 3 9 -4 5 -5 -3 -13 0 -15 6 -4
9 -6 10 -6 1z"/>
<path d="M1835 1780 c-3 -5 -1 -10 4 -10 6 0 11 5 11 10 0 6 -2 10 -4 10 -3 0
-8 -4 -11 -10z"/>
<path d="M1795 1760 c-3 -5 -1 -10 4 -10 6 0 11 5 11 10 0 6 -2 10 -4 10 -3 0
-8 -4 -11 -10z"/>
<path d="M1750 1715 c-11 -13 -10 -14 4 -9 9 3 16 10 16 15 0 13 -6 11 -20 -6z"/>
<path d="M1770 1691 c0 -7 -4 -10 -8 -7 -4 2 -9 -4 -9 -15 -1 -10 3 -19 9 -19
6 0 8 3 5 7 -4 3 -2 12 5 20 6 7 8 16 4 20 -3 3 -6 1 -6 -6z"/>
<path d="M837 1619 c7 -7 15 -10 18 -7 3 3 -2 9 -12 12 -14 6 -15 5 -6 -5z"/>
<path d="M1320 1239 c0 -5 5 -7 10 -4 6 3 10 8 10 11 0 2 -4 4 -10 4 -5 0 -10
-5 -10 -11z"/>
<path d="M1276 1218 c3 -4 11 -5 19 -1 21 7 19 12 -4 10 -11 0 -18 -5 -15 -9z"/>
<path d="M1784 1211 c20 -22 26 -25 26 -13 0 4 -10 13 -22 21 -23 14 -23 14
-4 -8z"/>
<path d="M1235 1200 c-3 -5 -1 -10 4 -10 6 0 11 5 11 10 0 6 -2 10 -4 10 -3 0
-8 -4 -11 -10z"/>
<path d="M1183 1184 c4 -4 2 -13 -4 -21 -15 -17 -1 -17 16 1 12 12 12 15 -2
21 -10 3 -14 3 -10 -1z"/>
<path d="M1180 1136 c0 -2 7 -7 16 -10 8 -3 12 -2 9 4 -6 10 -25 14 -25 6z"/>
<path d="M1473 1047 c-4 -8 -17 -19 -28 -26 -20 -13 -10 -11 33 6 15 6 15 5 3
-11 -12 -14 -12 -19 -1 -29 10 -9 11 -9 6 1 -4 7 -3 19 4 27 8 9 8 15 0 20 -6
3 -8 11 -5 16 4 5 4 9 1 9 -3 0 -9 -6 -13 -13z"/>
<path d="M1104 998 l-19 -23 23 19 c21 18 27 26 19 26 -2 0 -12 -10 -23 -22z"/>
<path d="M1035 980 c-3 -5 -1 -10 4 -10 6 0 11 5 11 10 0 6 -2 10 -4 10 -3 0
-8 -4 -11 -10z"/>
<path d="M1593 955 c0 -8 4 -12 9 -9 5 3 6 10 3 15 -9 13 -12 11 -12 -6z"/>
<path d="M2073 935 c0 -8 4 -12 9 -9 4 3 8 9 8 15 0 5 -4 9 -8 9 -5 0 -9 -7
-9 -15z"/>
<path d="M886 922 c-3 -5 1 -9 9 -9 8 0 15 4 15 9 0 4 -4 8 -9 8 -6 0 -12 -4
-15 -8z"/>
<path d="M915 900 c-3 -5 -1 -10 4 -10 6 0 11 5 11 10 0 6 -2 10 -4 10 -3 0
-8 -4 -11 -10z"/>
<path d="M897 869 c7 -7 15 -10 18 -7 3 3 -2 9 -12 12 -14 6 -15 5 -6 -5z"/>
<path d="M486 847 c3 -10 9 -15 12 -12 3 3 0 11 -7 18 -10 9 -11 8 -5 -6z"/>
<path d="M900 706 c7 -7 13 -7 20 0 6 6 3 10 -10 10 -13 0 -16 -4 -10 -10z"/>
<path d="M480 670 c-9 -6 -10 -10 -3 -10 6 0 15 5 18 10 8 12 4 12 -15 0z"/>
<path d="M470 616 c0 -2 8 -10 18 -17 15 -13 16 -12 3 4 -13 16 -21 21 -21 13z"/>
<path d="M910 579 c0 -5 5 -7 10 -4 6 3 10 8 10 11 0 2 -4 4 -10 4 -5 0 -10
-5 -10 -11z"/>
<path d="M898 508 c5 -5 16 -8 23 -6 8 3 3 7 -10 11 -17 4 -21 3 -13 -5z"/>
<path d="M2075 480 c-3 -5 -1 -10 4 -10 6 0 11 5 11 10 0 6 -2 10 -4 10 -3 0
-8 -4 -11 -10z"/>
<path d="M2096 462 c-2 -4 -1 -14 4 -22 7 -11 9 -9 7 8 -1 24 -3 26 -11 14z"/>
<path d="M2095 400 c-3 -5 -1 -10 4 -10 6 0 11 5 11 10 0 6 -2 10 -4 10 -3 0
-8 -4 -11 -10z"/>
<path d="M2095 341 c-3 -5 -2 -12 3 -15 5 -3 9 1 9 9 0 17 -3 19 -12 6z"/>
<path d="M470 316 c0 -2 7 -7 16 -10 8 -3 12 -2 9 4 -6 10 -25 14 -25 6z"/>
<path d="M886 301 c-3 -5 2 -15 12 -22 16 -13 16 -13 2 5 -14 18 -13 18 10 12
19 -6 21 -5 10 3 -18 13 -27 14 -34 2z"/>
<path d="M1653 265 c0 -8 4 -12 9 -9 5 3 6 10 3 15 -9 13 -12 11 -12 -6z"/>
<path d="M470 259 c0 -5 5 -7 10 -4 6 3 10 8 10 11 0 2 -4 4 -10 4 -5 0 -10
-5 -10 -11z"/>
<path d="M1696 177 c3 -10 9 -15 12 -12 3 3 0 11 -7 18 -10 9 -11 8 -5 -6z"/>
<path d="M2030 180 c-13 -8 -12 -10 3 -10 9 0 17 5 17 10 0 12 -1 12 -20 0z"/>
<path d="M870 170 c0 -5 5 -10 11 -10 5 0 7 5 4 10 -3 6 -8 10 -11 10 -2 0 -4
-4 -4 -10z"/>
<path d="M1985 160 c-4 -6 -12 -7 -18 -3 -7 4 -6 -1 2 -10 10 -13 17 -15 27
-6 8 6 14 15 14 20 0 12 -17 11 -25 -1z"/>
<path d="M546 142 c-3 -5 1 -9 9 -9 8 0 12 4 9 9 -3 4 -7 8 -9 8 -2 0 -6 -4
-9 -8z"/>
<path d="M2027 139 c7 -7 15 -10 18 -7 3 3 -2 9 -12 12 -14 6 -15 5 -6 -5z"/>
<path d="M575 120 c-3 -5 -1 -10 4 -10 6 0 11 5 11 10 0 6 -2 10 -4 10 -3 0
-8 -4 -11 -10z"/>
<path d="M835 100 c3 -5 8 -10 11 -10 2 0 4 5 4 10 0 6 -5 10 -11 10 -5 0 -7
-4 -4 -10z"/>
<path d="M1870 97 c0 -2 6 -10 14 -16 11 -9 16 -9 22 1 4 7 4 10 -1 6 -4 -4
-14 -3 -22 3 -7 6 -13 9 -13 6z"/>
<path d="M707 79 c7 -7 15 -10 18 -7 3 3 -2 9 -12 12 -14 6 -15 5 -6 -5z"/>
</g>
</svg>
