<?xml version="1.0" encoding="utf-8"?>
<!-- Generator: Adobe Illustrator 25.4.1, SVG Export Plug-In . SVG Version: 6.00 Build 0)  -->
<svg version="1.1" id="Layer_1" xmlns="http://www.w3.org/2000/svg" xmlns:xlink="http://www.w3.org/1999/xlink" x="0px" y="0px"
	 viewBox="0 0 1600 1200" style="enable-background:new 0 0 1600 1200;" xml:space="preserve">
<style type="text/css">
	.st0{fill:#FFFFFF;}
</style>
<g id="Layer_1-2">
	<path class="st0" d="M889.3,154.6c34.7,61,13.4,138.6-47.6,173.3s-138.6,13.4-173.3-47.6c-34.6-60.8-13.6-138.2,47.2-173.1
		c60.9-34.9,138.5-13.9,173.5,46.9C889.1,154.4,889.2,154.5,889.3,154.6z"/>
	<path class="st0" d="M1109.6,536.2c34.8,61,13.6,138.6-47.4,173.4c-61,34.8-138.6,13.6-173.4-47.4
		c-34.8-60.9-13.6-138.5,47.3-173.3C997.1,454.1,1074.7,475.3,1109.6,536.2z"/>
	<path class="st0" d="M1330,917.9c34.8,61,13.6,138.6-47.4,173.4c-61,34.8-138.6,13.6-173.4-47.4c-34.8-60.9-13.6-138.5,47.3-173.3
		c60.9-34.8,138.6-13.7,173.4,47.2C1329.9,917.8,1330,917.9,1330,917.9z"/>
	<path class="st0" d="M424.7,646.2c-25.5,44.6-10.1,101.4,34.5,126.9c44.6,25.5,101.4,10.1,126.9-34.5
		c25.5-44.6,10.1-101.4-34.5-126.9c0,0,0,0-0.1,0c-44.4-25.5-101.1-10.2-126.7,34.2C424.8,646,424.8,646.1,424.7,646.2z"/>
	<path class="st0" d="M261.9,1014c-17.6,30.4-7.2,69.4,23.2,87s69.4,7.2,87-23.2s7.2-69.4-23.2-87c-0.3-0.2-0.6-0.3-0.9-0.5
		C317.7,973.4,279.3,983.9,261.9,1014z"/>
</g>
</svg>
